<svg width="125" height="55" viewBox="0 0 125 55" fill="none" xmlns="http://www.w3.org/2000/svg">
<g clip-path="url(#clip0_1059_1779)">
<path fill-rule="evenodd" clip-rule="evenodd" d="M7.61131 24.3315L35.417 24.3184V28.7846L5.38477 35.2415L7.61131 24.3315Z" fill="black"/>
<path fill-rule="evenodd" clip-rule="evenodd" d="M23.367 32.7402L26.9164 41.2928L18.0887 47.9201L16.4385 34.4036L23.367 32.7402Z" fill="black"/>
<path fill-rule="evenodd" clip-rule="evenodd" d="M14.0025 14.5218L21.6382 11.9809L22.5157 10.7236L23.9041 11.2343L24.834 9.88532L26.5759 10.3437L27.6499 8.96851L28.4488 9.71506L36.6216 7.00391L33.4651 18.8832L22.28 19.2368L25.109 23.0743L15.011 23.0874L13.8584 14.548L14.0025 14.5218Z" fill="black"/>
</g>
<path d="M44.2652 40.9487C42.2811 40.9487 40.7298 40.3961 39.6113 39.2908C38.4928 38.1856 37.9335 36.6077 37.9335 34.5571V26.7273H41.1693V34.4372C41.1693 35.7688 41.4422 36.7275 41.9882 37.3134C42.5341 37.8993 43.2998 38.1923 44.2852 38.1923C45.2705 38.1923 46.0362 37.8993 46.5822 37.3134C47.1281 36.7275 47.4011 35.7688 47.4011 34.4372V26.7273H50.5969V34.5571C50.5969 36.6077 50.0376 38.1856 48.9191 39.2908C47.8006 40.3961 46.2493 40.9487 44.2652 40.9487ZM60.1061 29.8033C60.9583 29.8033 61.7173 29.9764 62.3831 30.3226C63.0622 30.6555 63.5949 31.1748 63.981 31.8806C64.3672 32.573 64.5603 33.4652 64.5603 34.5571V40.709H61.4444V35.0364C61.4444 34.1709 61.2513 33.5317 60.8651 33.119C60.4923 32.7062 59.9596 32.4998 59.2672 32.4998C58.7745 32.4998 58.3284 32.6063 57.929 32.8193C57.5428 33.0191 57.2365 33.332 57.0102 33.7581C56.7971 34.1842 56.6906 34.7302 56.6906 35.396V40.709H53.5747V29.9631H56.5508V32.9392L55.9915 32.0404C56.3777 31.3213 56.9303 30.7687 57.6493 30.3825C58.3684 29.9964 59.1873 29.8033 60.1061 29.8033ZM67.6044 40.709V26.7273H70.2809L78.53 36.7941H77.2317V26.7273H80.4275V40.709H77.771L69.5019 30.6422H70.8002V40.709H67.6044ZM86.6317 40.709V29.3639H82.1576V26.7273H94.3416V29.3639H89.8675V40.709H86.6317ZM101.908 40.709V38.6117L101.708 38.1523V34.3973C101.708 33.7315 101.502 33.2122 101.089 32.8393C100.69 32.4665 100.07 32.2801 99.2316 32.2801C98.659 32.2801 98.0931 32.3733 97.5338 32.5597C96.9879 32.7328 96.5218 32.9725 96.1357 33.2787L95.0171 31.1016C95.603 30.6888 96.3088 30.3692 97.1344 30.1429C97.9599 29.9165 98.7988 29.8033 99.651 29.8033C101.289 29.8033 102.561 30.1895 103.466 30.9618C104.372 31.7341 104.824 32.9392 104.824 34.577V40.709H101.908ZM98.6324 40.8688C97.7935 40.8688 97.0744 40.729 96.4752 40.4493C95.876 40.1564 95.4166 39.7636 95.097 39.2709C94.7774 38.7782 94.6177 38.2256 94.6177 37.6131C94.6177 36.9739 94.7708 36.4146 95.0771 35.9353C95.3966 35.4559 95.896 35.083 96.5751 34.8167C97.2542 34.5371 98.1397 34.3973 99.2316 34.3973H102.088V36.2149H99.5712C98.8388 36.2149 98.3328 36.3347 98.0531 36.5744C97.7868 36.8141 97.6537 37.1137 97.6537 37.4732C97.6537 37.8727 97.8068 38.1923 98.1131 38.432C98.4326 38.6583 98.8654 38.7715 99.4114 38.7715C99.9307 38.7715 100.397 38.6517 100.81 38.412C101.222 38.159 101.522 37.7928 101.708 37.3134L102.188 38.7516C101.961 39.444 101.549 39.97 100.949 40.3295C100.35 40.689 99.5778 40.8688 98.6324 40.8688ZM107.644 40.709V29.9631H110.76V40.709H107.644ZM109.202 28.4651C108.63 28.4651 108.164 28.2986 107.804 27.9657C107.445 27.6328 107.265 27.22 107.265 26.7273C107.265 26.2347 107.445 25.8219 107.804 25.489C108.164 25.1561 108.63 24.9896 109.202 24.9896C109.775 24.9896 110.241 25.1494 110.6 25.469C110.96 25.7753 111.14 26.1747 111.14 26.6674C111.14 27.1867 110.96 27.6195 110.6 27.9657C110.254 28.2986 109.788 28.4651 109.202 28.4651ZM113.652 40.709V25.8885H116.768V40.709H113.652Z" fill="black"/>
<g clip-path="url(#clip1_1059_1779)">
<path fill-rule="evenodd" clip-rule="evenodd" d="M114.069 22.2975C114.997 23.8294 113.518 26.1235 112.348 25.4594C110.681 24.5161 112.673 21.6561 113.729 22.0032C113.812 21.8145 113.888 21.6259 113.956 21.4297L113.88 22.0862C113.948 22.1315 114.016 22.2069 114.069 22.2975ZM110.756 28.2516C111.42 28.7119 112.228 27.7988 112.228 27.2328C112.228 26.5159 111.526 25.5802 110.537 24.7802C109.526 23.9652 108.93 23.9879 108.039 24.7425C107.058 25.5802 106.326 26.5008 106.334 27.2328C106.349 27.7988 107.149 28.7119 107.813 28.2516C109.171 27.3083 109.639 27.4818 110.756 28.2516ZM107.33 26.1914C107.345 26.3122 107.428 26.3499 107.421 26.4933C107.406 26.5838 107.217 26.863 107.451 27.0668C107.617 27.2177 107.881 27.2253 107.994 27.0668C108.055 26.9838 108.1 26.9234 108.221 26.9008C108.424 26.863 108.703 26.8404 108.93 26.8404C109.277 26.8329 109.715 26.8253 110.062 26.8781C110.122 26.8857 110.364 26.9083 110.401 26.9234C110.484 26.9536 110.469 27.014 110.598 27.1045C110.952 27.346 111.284 26.9913 111.239 26.7498C111.216 26.6442 111.118 26.5914 111.141 26.4555C111.164 26.3272 111.224 26.2971 111.224 26.1461C111.224 25.7613 110.786 25.6481 110.552 25.8971C110.477 25.9801 110.477 26.0103 110.326 26.048C109.941 26.1461 109.247 26.1537 108.862 26.1159C108.681 26.1009 108.311 26.0782 108.175 26.0254C108.017 25.965 107.979 25.7386 107.67 25.7613C107.473 25.7839 107.292 25.9575 107.33 26.1914ZM107.496 22.9389C106.809 22.5314 106.477 21.8749 106.462 20.9995C106.447 20.4864 106.583 19.9204 106.915 19.6412L106.923 18.9922L107.224 19.4827C107.421 19.4374 107.655 19.4676 107.941 19.611C109.451 20.3505 109.239 23.9728 107.496 22.9389ZM111.639 18.9922L111.33 19.5129C110.017 19.1658 108.839 22.0107 110.167 22.9314C111.639 23.9577 112.779 20.509 111.647 19.6638L111.639 18.9922ZM104.591 21.1957C104.681 21.4749 104.794 21.7466 104.945 22.0183C105.602 21.8824 106.5 22.5088 106.726 23.686C107.224 26.3348 104.561 26.0405 104.236 23.6558C104.123 22.8182 104.342 22.3201 104.696 22.1164L104.591 21.1957Z" fill="black"/>
</g>
<defs>
<clipPath id="clip0_1059_1779">
<rect width="31.2372" height="40.9302" fill="white" transform="translate(5.38477 7)"/>
</clipPath>
<clipPath id="clip1_1059_1779">
<rect width="10.156" height="9.38767" fill="white" transform="translate(104.203 18.9985)"/>
</clipPath>
</defs>
</svg>
