<svg width="400" height="401" viewBox="0 0 400 401" fill="none" xmlns="http://www.w3.org/2000/svg">
<path d="M349.551 336.422H51.9915C51.9915 336.422 42.5563 320.456 36.0251 288.522C29.4931 256.589 60.7011 268.201 68.6843 240.622C76.6675 213.044 41.8315 218.849 44.7347 181.11C47.6379 143.371 95.5379 142.645 118.762 147.725C141.986 152.805 139.083 135.388 165.936 106.357C192.789 77.327 233.431 80.2302 253.752 102.729C274.074 125.227 267.542 148.451 292.943 148.451C318.345 148.451 341.569 153.531 356.81 202.157C372.051 250.782 344.192 273.004 344.695 294.915C345.196 316.827 349.551 336.422 349.551 336.422Z" fill="#1ABC9C"/>
<path opacity="0.7" d="M349.551 336.422H51.9915C51.9915 336.422 42.5563 320.456 36.0251 288.522C29.4931 256.589 60.7011 268.201 68.6843 240.622C76.6675 213.044 41.8315 218.849 44.7347 181.11C47.6379 143.371 95.5379 142.645 118.762 147.725C141.986 152.805 139.083 135.388 165.936 106.357C192.789 77.327 233.431 80.2302 253.752 102.729C274.074 125.227 267.542 148.451 292.943 148.451C318.345 148.451 341.569 153.531 356.81 202.157C372.051 250.782 344.192 273.004 344.695 294.915C345.196 316.827 349.551 336.422 349.551 336.422Z" fill="white"/>
<path d="M172.332 336.423C165.039 325.323 133.898 278.67 124.828 277.422C115.952 276.201 84.4241 323.382 75.8945 336.423H172.332Z" fill="#032921" stroke="#032921" stroke-width="0.8" stroke-miterlimit="10" stroke-linecap="round" stroke-linejoin="round"/>
<path d="M212.23 63.8047V171.4" stroke="#032921" stroke-width="2.4" stroke-miterlimit="10" stroke-linecap="round" stroke-linejoin="round"/>
<path d="M225.008 66.6904V171.4" stroke="#032921" stroke-width="2.4" stroke-miterlimit="10" stroke-linecap="round" stroke-linejoin="round"/>
<path d="M239.023 123.993V225.404" stroke="#032921" stroke-width="2.4" stroke-miterlimit="10" stroke-linecap="round" stroke-linejoin="round"/>
<path d="M253.867 66.6904V225.404" stroke="#032921" stroke-width="2.4" stroke-miterlimit="10" stroke-linecap="round" stroke-linejoin="round"/>
<path d="M268.707 66.6904V174.286" stroke="#032921" stroke-width="2.4" stroke-miterlimit="10" stroke-linecap="round" stroke-linejoin="round"/>
<path d="M201.098 78.2334H269.118" stroke="#032921" stroke-width="2.4" stroke-miterlimit="10" stroke-linecap="round" stroke-linejoin="round"/>
<path d="M201.098 102.143H274.867" stroke="#032921" stroke-width="2.4" stroke-miterlimit="10" stroke-linecap="round" stroke-linejoin="round"/>
<path d="M199.863 123.993H281.9" stroke="#032921" stroke-width="2.4" stroke-miterlimit="10" stroke-linecap="round" stroke-linejoin="round"/>
<path d="M198.625 148.315H281.899" stroke="#032921" stroke-width="2.4" stroke-miterlimit="10" stroke-linecap="round" stroke-linejoin="round"/>
<path d="M214.289 174.698H277.362" stroke="#032921" stroke-width="2.4" stroke-miterlimit="10" stroke-linecap="round" stroke-linejoin="round"/>
<path d="M230.781 200.258H272.005" stroke="#032921" stroke-width="2.4" stroke-miterlimit="10" stroke-linecap="round" stroke-linejoin="round"/>
<path d="M122.246 74.0249L136.8 85.4145" stroke="#032921" stroke-width="1.6" stroke-miterlimit="10" stroke-linecap="round" stroke-linejoin="round"/>
<path d="M151.352 62.0029L156.413 69.5957" stroke="#032921" stroke-width="1.6" stroke-miterlimit="10" stroke-linecap="round" stroke-linejoin="round"/>
<path d="M177.297 43.6523L181.726 57.5731" stroke="#032921" stroke-width="1.6" stroke-miterlimit="10" stroke-linecap="round" stroke-linejoin="round"/>
<path d="M260.316 222.533H236.292V165.467H203.759V64.4102C159.945 64.8398 124.559 100.485 124.559 144.4C124.559 157.908 127.911 170.63 133.823 181.789C136.43 187.859 142.563 202.735 148.699 221.964C154.364 239.714 157.331 257.567 157.331 260.265C157.331 260.525 157.326 260.801 157.316 261.086C157.208 264.469 159.908 267.277 163.292 267.277H199.537H209.656H245.901C249.285 267.277 251.985 264.469 251.877 261.086C251.868 260.801 251.863 260.525 251.863 260.265C251.863 257.597 254.768 240.094 260.316 222.533Z" fill="#1ABC9C" stroke="#032921" stroke-width="1.6" stroke-miterlimit="10" stroke-linecap="round" stroke-linejoin="round"/>
<path d="M176.645 77.2721C178.937 76.2441 181.316 75.3209 183.761 74.5537" stroke="#032921" stroke-width="1.6" stroke-miterlimit="10" stroke-linecap="round" stroke-linejoin="round"/>
<path d="M150.004 97.5701C150.004 97.5701 156.526 87.2125 170.854 80.1709" stroke="#032921" stroke-width="1.6" stroke-miterlimit="10" stroke-linecap="round" stroke-linejoin="round"/>
<path d="M151.719 212.712C154.689 222.409 158.612 235.837 159.976 243.339C162.278 255.998 160.744 262.519 165.731 263.67" stroke="#032921" stroke-width="1.6" stroke-miterlimit="10" stroke-linecap="round" stroke-linejoin="round"/>
<path d="M148.086 201.143C148.086 201.143 148.93 203.742 150.177 207.73" stroke="#032921" stroke-width="1.6" stroke-miterlimit="10" stroke-linecap="round" stroke-linejoin="round"/>
<path d="M199.535 266.478V190C199.535 190 202.69 170 192.29 170C181.89 170 182.69 180.4 194.69 191.6C206.69 202.8 225.09 192.4 227.49 183.6C229.89 174.8 223.49 170.8 219.49 178C215.49 185.2 219.49 266.8 219.49 266.8" stroke="#032921" stroke-width="1.6" stroke-miterlimit="10" stroke-linecap="round" stroke-linejoin="round"/>
<path d="M247.993 266.789H161.664V286.821H247.993V266.789Z" fill="white" stroke="#032921" stroke-width="1.6" stroke-miterlimit="10" stroke-linecap="round" stroke-linejoin="round"/>
<path d="M247.993 291.59H161.664V311.622H247.993V291.59Z" fill="white" stroke="#032921" stroke-width="1.6" stroke-miterlimit="10" stroke-linecap="round" stroke-linejoin="round"/>
<path d="M247.993 286.821H161.664V291.59H247.993V286.821Z" fill="#032921" stroke="#032921" stroke-width="0.8" stroke-miterlimit="10" stroke-linecap="round" stroke-linejoin="round"/>
<path d="M247.993 316.392H161.664V336.424H247.993V316.392Z" fill="white" stroke="#032921" stroke-width="1.6" stroke-miterlimit="10" stroke-linecap="round" stroke-linejoin="round"/>
<path d="M238.961 284.144H245.379" stroke="#032921" stroke-width="0.8" stroke-miterlimit="10" stroke-linecap="round" stroke-linejoin="round"/>
<path d="M165.059 284.144H235.871" stroke="#032921" stroke-width="0.8" stroke-miterlimit="10" stroke-linecap="round" stroke-linejoin="round"/>
<path d="M222.32 309.337H242.999" stroke="#032921" stroke-width="0.8" stroke-miterlimit="10" stroke-linecap="round" stroke-linejoin="round"/>
<path d="M177.875 309.337H219.944" stroke="#032921" stroke-width="0.8" stroke-miterlimit="10" stroke-linecap="round" stroke-linejoin="round"/>
<path d="M170.984 309.337H174.55" stroke="#032921" stroke-width="0.8" stroke-miterlimit="10" stroke-linecap="round" stroke-linejoin="round"/>
<path d="M247.993 311.623H161.664V316.392H247.993V311.623Z" fill="#032921" stroke="#032921" stroke-width="0.8" stroke-miterlimit="10" stroke-linecap="round" stroke-linejoin="round"/>
<path d="M202.457 320.781H172.902V336.166H202.457V320.781Z" fill="#1ABC9C" stroke="#032921" stroke-width="0.8" stroke-miterlimit="10" stroke-linecap="round" stroke-linejoin="round"/>
<path d="M240.918 320.781H211.363V336.166H240.918V320.781Z" fill="#1ABC9C" stroke="#032921" stroke-width="0.8" stroke-miterlimit="10" stroke-linecap="round" stroke-linejoin="round"/>
<path d="M267.489 336.422C261.827 331.452 237.646 310.566 230.605 310.007C223.713 309.461 199.233 330.583 192.609 336.422H267.489Z" fill="#032921" stroke="#032921" stroke-width="0.8" stroke-miterlimit="10" stroke-linecap="round" stroke-linejoin="round"/>
<path d="M360.863 336.422H367.807" stroke="#032921" stroke-width="0.8" stroke-miterlimit="10" stroke-linecap="round" stroke-linejoin="round"/>
<path d="M42.9922 336.422H353.919" stroke="#032921" stroke-width="0.8" stroke-miterlimit="10" stroke-linecap="round" stroke-linejoin="round"/>
<path d="M32.1914 336.422H37.5922" stroke="#032921" stroke-width="0.8" stroke-miterlimit="10" stroke-linecap="round" stroke-linejoin="round"/>
<path d="M346.89 290.764H326.129V319.879H334.731H346.89H355.491V305.321L346.89 290.764Z" fill="#032921" stroke="#032921" stroke-width="0.8" stroke-miterlimit="10" stroke-linecap="round" stroke-linejoin="round"/>
<path d="M355.492 319.879H345.98V326.496H355.492V319.879Z" fill="white" stroke="#032921" stroke-width="0.8" stroke-miterlimit="10" stroke-linecap="round" stroke-linejoin="round"/>
<path d="M310.694 319.553C310.694 319.553 321.094 313.953 317.494 285.953L304.294 278.753L281.494 275.153L261.094 275.953V287.553C261.094 287.553 272.694 297.553 273.894 300.753C275.094 303.953 275.094 307.553 275.094 307.553V318.753L310.694 319.553Z" fill="#1ABC9C" stroke="#032921" stroke-width="0.8" stroke-miterlimit="10" stroke-linecap="round" stroke-linejoin="round"/>
<path d="M317.491 285.953L310.691 319.553" stroke="#032921" stroke-width="0.8" stroke-miterlimit="10" stroke-linecap="round" stroke-linejoin="round"/>
<path d="M304.291 278.753L296.691 319.553" stroke="#032921" stroke-width="0.8" stroke-miterlimit="10" stroke-linecap="round" stroke-linejoin="round"/>
<path d="M281.491 275.153L275.891 305.553" stroke="#032921" stroke-width="0.8" stroke-miterlimit="10" stroke-linecap="round" stroke-linejoin="round"/>
<path d="M261.891 285.953C261.891 285.953 275.091 291.553 280.291 295.153C285.491 298.753 284.691 306.353 284.691 306.353" stroke="#032921" stroke-width="0.8" stroke-miterlimit="10" stroke-linecap="round" stroke-linejoin="round"/>
<path d="M326.314 320.094H264.289V325.297H326.314V320.094Z" fill="white" stroke="#032921" stroke-width="0.8" stroke-miterlimit="10" stroke-linecap="round" stroke-linejoin="round"/>
<path d="M338.695 306.753H351.651L344.695 294.753H338.695V306.753Z" fill="white" stroke="#032921" stroke-width="0.8" stroke-miterlimit="10" stroke-linecap="round" stroke-linejoin="round"/>
<path d="M336.694 294.753H331.094V306.753H336.694V294.753Z" fill="white" stroke="#032921" stroke-width="0.8" stroke-miterlimit="10" stroke-linecap="round" stroke-linejoin="round"/>
<path d="M302.371 319.879H264.613V328.896H302.371V319.879Z" fill="white" stroke="#032921" stroke-width="0.8" stroke-miterlimit="10" stroke-linecap="round" stroke-linejoin="round"/>
<path d="M338.129 336.305C342.445 335.526 345.312 331.396 344.532 327.08C343.753 322.764 339.623 319.897 335.307 320.676C330.991 321.456 328.124 325.586 328.903 329.902C329.683 334.218 333.813 337.085 338.129 336.305Z" fill="#032921" stroke="#032921" stroke-width="0.8" stroke-miterlimit="10" stroke-linecap="round" stroke-linejoin="round"/>
<path d="M336.714 333.114C339.272 333.114 341.346 331.04 341.346 328.482C341.346 325.923 339.272 323.85 336.714 323.85C334.156 323.85 332.082 325.923 332.082 328.482C332.082 331.04 334.156 333.114 336.714 333.114Z" fill="white" stroke="#032921" stroke-width="0.8" stroke-miterlimit="10" stroke-linecap="round" stroke-linejoin="round"/>
<path d="M276.908 336.298C281.226 335.534 284.107 331.414 283.343 327.095C282.579 322.777 278.458 319.895 274.14 320.66C269.821 321.424 266.94 325.545 267.704 329.863C268.469 334.182 272.589 337.063 276.908 336.298Z" fill="#032921" stroke="#032921" stroke-width="0.8" stroke-miterlimit="10" stroke-linecap="round" stroke-linejoin="round"/>
<path d="M275.519 333.114C278.077 333.114 280.151 331.04 280.151 328.482C280.151 325.924 278.077 323.85 275.519 323.85C272.961 323.85 270.887 325.924 270.887 328.482C270.887 331.04 272.961 333.114 275.519 333.114Z" fill="white" stroke="#032921" stroke-width="0.8" stroke-miterlimit="10" stroke-linecap="round" stroke-linejoin="round"/>
<path d="M300.055 334.326C303.285 331.36 303.5 326.336 300.534 323.106C297.568 319.876 292.544 319.661 289.314 322.627C286.084 325.593 285.869 330.616 288.835 333.847C291.801 337.077 296.824 337.292 300.055 334.326Z" fill="#032921" stroke="#032921" stroke-width="0.8" stroke-miterlimit="10" stroke-linecap="round" stroke-linejoin="round"/>
<path d="M294.691 333.114C297.249 333.114 299.323 331.04 299.323 328.482C299.323 325.923 297.249 323.85 294.691 323.85C292.132 323.85 290.059 325.923 290.059 328.482C290.059 331.04 292.132 333.114 294.691 333.114Z" fill="white" stroke="#032921" stroke-width="0.8" stroke-miterlimit="10" stroke-linecap="round" stroke-linejoin="round"/>
<path d="M292.092 305.953H272.092C270.656 305.953 269.492 307.117 269.492 308.553V316.953C269.492 318.389 270.656 319.553 272.092 319.553H292.092C293.528 319.553 294.692 318.389 294.692 316.953V308.553C294.692 307.117 293.528 305.953 292.092 305.953Z" fill="#032921" stroke="#032921" stroke-width="0.8" stroke-miterlimit="10" stroke-linecap="round" stroke-linejoin="round"/>
<path d="M259.492 319.553V279.997H267.492V319.553" stroke="#032921" stroke-width="0.8" stroke-miterlimit="10" stroke-linecap="round" stroke-linejoin="round"/>
<path d="M259.551 285.238H267.412" stroke="#032921" stroke-width="0.8" stroke-miterlimit="10" stroke-linecap="round" stroke-linejoin="round"/>
<path d="M259.551 291.415H267.412" stroke="#032921" stroke-width="0.8" stroke-miterlimit="10" stroke-linecap="round" stroke-linejoin="round"/>
<path d="M259.551 297.591H267.412" stroke="#032921" stroke-width="0.8" stroke-miterlimit="10" stroke-linecap="round" stroke-linejoin="round"/>
<path d="M259.551 303.768H267.412" stroke="#032921" stroke-width="0.8" stroke-miterlimit="10" stroke-linecap="round" stroke-linejoin="round"/>
<path d="M259.551 309.945H267.412" stroke="#032921" stroke-width="0.8" stroke-miterlimit="10" stroke-linecap="round" stroke-linejoin="round"/>
<path d="M259.551 316.122H267.412" stroke="#032921" stroke-width="0.8" stroke-miterlimit="10" stroke-linecap="round" stroke-linejoin="round"/>
<path d="M99.4898 337.197H85.0898V85.9966L99.4898 102.741V337.197Z" stroke="#032921" stroke-width="0.8" stroke-miterlimit="10" stroke-linecap="round" stroke-linejoin="round"/>
<path d="M85.2266 284.396H99.3538L85.2266 270.741H99.3538L85.2266 284.396Z" stroke="#032921" stroke-width="0.8" stroke-miterlimit="10" stroke-linecap="round" stroke-linejoin="round"/>
<path d="M85.2266 270.396H99.3538L85.2266 256.741H99.3538L85.2266 270.396Z" stroke="#032921" stroke-width="0.8" stroke-miterlimit="10" stroke-linecap="round" stroke-linejoin="round"/>
<path d="M85.2266 256.396H99.3538L85.2266 242.741H99.3538L85.2266 256.396Z" stroke="#032921" stroke-width="0.8" stroke-miterlimit="10" stroke-linecap="round" stroke-linejoin="round"/>
<path d="M85.2266 242.396H99.3538L85.2266 228.741H99.3538L85.2266 242.396Z" stroke="#032921" stroke-width="0.8" stroke-miterlimit="10" stroke-linecap="round" stroke-linejoin="round"/>
<path d="M85.2266 228.396H99.3538L85.2266 214.741H99.3538L85.2266 228.396Z" stroke="#032921" stroke-width="0.8" stroke-miterlimit="10" stroke-linecap="round" stroke-linejoin="round"/>
<path d="M85.2266 214.396H99.3538L85.2266 200.741H99.3538L85.2266 214.396Z" stroke="#032921" stroke-width="0.8" stroke-miterlimit="10" stroke-linecap="round" stroke-linejoin="round"/>
<path d="M85.2266 200.396H99.3538L85.2266 186.741H99.3538L85.2266 200.396Z" stroke="#032921" stroke-width="0.8" stroke-miterlimit="10" stroke-linecap="round" stroke-linejoin="round"/>
<path d="M85.2266 186.396H99.3538L85.2266 172.741H99.3538L85.2266 186.396Z" stroke="#032921" stroke-width="0.8" stroke-miterlimit="10" stroke-linecap="round" stroke-linejoin="round"/>
<path d="M85.2266 172.396H99.3538L85.2266 158.741H99.3538L85.2266 172.396Z" stroke="#032921" stroke-width="0.8" stroke-miterlimit="10" stroke-linecap="round" stroke-linejoin="round"/>
<path d="M85.2266 158.396H99.3538L85.2266 144.741H99.3538L85.2266 158.396Z" stroke="#032921" stroke-width="0.8" stroke-miterlimit="10" stroke-linecap="round" stroke-linejoin="round"/>
<path d="M85.2266 144.396H99.3538L85.2266 130.741H99.3538L85.2266 144.396Z" stroke="#032921" stroke-width="0.8" stroke-miterlimit="10" stroke-linecap="round" stroke-linejoin="round"/>
<path d="M85.2266 130.396H99.3538L85.2266 116.741H99.3538L85.2266 130.396Z" stroke="#032921" stroke-width="0.8" stroke-miterlimit="10" stroke-linecap="round" stroke-linejoin="round"/>
<path d="M85.2266 116.396H99.3538L85.2266 102.741H99.3538L85.2266 116.396Z" stroke="#032921" stroke-width="0.8" stroke-miterlimit="10" stroke-linecap="round" stroke-linejoin="round"/>
<path d="M166.341 116.771L159.366 112.378H109.585L103.504 116.771H166.341Z" stroke="#032921" stroke-width="0.8" stroke-miterlimit="10" stroke-linecap="round" stroke-linejoin="round"/>
<path d="M167.491 116.396H45.8906V119.596H167.491V116.396Z" fill="#032921" stroke="#032921" stroke-width="0.8" stroke-miterlimit="10" stroke-linecap="round" stroke-linejoin="round"/>
<path d="M159.365 112.378L85.0898 85.9966L109.585 112.378" stroke="#032921" stroke-width="0.8" stroke-miterlimit="10" stroke-linecap="round" stroke-linejoin="round"/>
<path d="M85.0906 85.9966L45.8906 116.397" stroke="#032921" stroke-width="0.8" stroke-miterlimit="10" stroke-linecap="round" stroke-linejoin="round"/>
<path d="M109.891 123.197H79.8906V142.397H109.891V123.197Z" fill="#032921" stroke="#032921" stroke-width="0.8" stroke-miterlimit="10" stroke-linecap="round" stroke-linejoin="round"/>
<path d="M103.641 127.197H86.1406V132.797H103.641V127.197Z" fill="white" stroke="#032921" stroke-width="0.8" stroke-miterlimit="10" stroke-linecap="round" stroke-linejoin="round"/>
<path d="M167.492 119.597V154.094" stroke="#032921" stroke-width="0.8" stroke-miterlimit="10" stroke-linecap="round" stroke-linejoin="round"/>
<path d="M172.062 165.873H163.172V175.948H172.062V165.873Z" fill="#032921" stroke="#032921" stroke-width="0.8" stroke-miterlimit="10" stroke-linecap="round" stroke-linejoin="round"/>
<path d="M163.172 165.873L167.617 153.436L172.062 165.873" stroke="#032921" stroke-width="0.8" stroke-miterlimit="10" stroke-linecap="round" stroke-linejoin="round"/>
<path d="M143.515 287.422L162.759 317.768L167.587 314.257L153.462 286.007C152.166 283.415 149.517 281.778 146.619 281.778C143.721 281.778 141.963 284.975 143.515 287.422Z" fill="#1ABC9C" stroke="#032921" stroke-width="0.8" stroke-miterlimit="10" stroke-linecap="round" stroke-linejoin="round"/>
<path d="M165.833 310.307L146.082 324.351C146.082 324.351 147.838 331.813 159.249 331.374C170.661 330.935 170.222 319.084 170.222 319.084L165.833 310.307Z" fill="#032921" stroke="white" stroke-width="0.8" stroke-miterlimit="10" stroke-linecap="round" stroke-linejoin="round"/>
<path d="M110.969 301.09L146.746 284.971C149.174 283.876 152.038 284.627 153.618 286.771C155.502 289.328 154.911 292.935 152.31 294.755L113.163 322.158L110.969 301.09Z" fill="#1ABC9C" stroke="#032921" stroke-width="0.8" stroke-miterlimit="10" stroke-linecap="round" stroke-linejoin="round"/>
<path d="M105.7 320.841H68.832V326.546H105.7V320.841Z" fill="white" stroke="#032921" stroke-width="0.8" stroke-miterlimit="10" stroke-linecap="round" stroke-linejoin="round"/>
<path d="M87.7041 304.601H55.6641V317.768H87.7041V304.601Z" fill="#032921" stroke="#032921" stroke-width="0.8" stroke-miterlimit="10" stroke-linecap="round" stroke-linejoin="round"/>
<path d="M81.1219 317.768H113.162V292.092C113.162 290.758 112.081 289.678 110.747 289.678H83.5347C82.2019 289.678 81.1211 290.759 81.1211 292.092L81.1219 317.768Z" fill="#1ABC9C" stroke="#032921" stroke-width="0.8" stroke-miterlimit="10" stroke-linecap="round" stroke-linejoin="round"/>
<path d="M55.3364 336.421H107.786C111.24 336.421 114.04 333.621 114.04 330.167C114.04 326.713 111.24 323.913 107.786 323.913H55.3364C51.882 323.913 49.082 326.713 49.082 330.167C49.082 333.621 51.8828 336.421 55.3364 336.421Z" fill="#032921" stroke="#032921" stroke-width="0.8" stroke-miterlimit="10" stroke-linecap="round" stroke-linejoin="round"/>
<path d="M63.2388 336.421H115.688C119.143 336.421 121.943 333.621 121.943 330.167C121.943 326.713 119.143 323.913 115.688 323.913H63.2388C59.7844 323.913 56.9844 326.713 56.9844 330.167C56.9844 333.621 59.7844 336.421 63.2388 336.421Z" fill="white" stroke="#032921" stroke-width="0.8" stroke-miterlimit="10" stroke-linecap="round" stroke-linejoin="round"/>
<path d="M113.161 317.768H55.6641V322.157H113.161V317.768Z" fill="white" stroke="#032921" stroke-width="0.8" stroke-miterlimit="10" stroke-linecap="round" stroke-linejoin="round"/>
<path d="M67.518 330.167C67.518 332.349 65.7492 334.118 63.5676 334.118C61.386 334.118 59.6172 332.349 59.6172 330.167C59.6172 327.986 61.386 326.217 63.5676 326.217C65.7492 326.218 67.518 327.986 67.518 330.167Z" fill="#032921" stroke="#032921" stroke-width="0.8" stroke-miterlimit="10" stroke-linecap="round" stroke-linejoin="round"/>
<path d="M74.0988 334.118C76.2806 334.118 78.0492 332.349 78.0492 330.167C78.0492 327.985 76.2806 326.217 74.0988 326.217C71.9171 326.217 70.1484 327.985 70.1484 330.167C70.1484 332.349 71.9171 334.118 74.0988 334.118Z" fill="#032921" stroke="#032921" stroke-width="0.8" stroke-miterlimit="10" stroke-linecap="round" stroke-linejoin="round"/>
<path d="M84.634 334.118C86.8157 334.118 88.5844 332.349 88.5844 330.167C88.5844 327.985 86.8157 326.217 84.634 326.217C82.4522 326.217 80.6836 327.985 80.6836 330.167C80.6836 332.349 82.4522 334.118 84.634 334.118Z" fill="#032921" stroke="#032921" stroke-width="0.8" stroke-miterlimit="10" stroke-linecap="round" stroke-linejoin="round"/>
<path d="M99.1195 330.167C99.1195 332.349 97.3507 334.118 95.1691 334.118C92.9875 334.118 91.2188 332.349 91.2188 330.167C91.2188 327.986 92.9875 326.217 95.1691 326.217C97.3507 326.218 99.1195 327.986 99.1195 330.167Z" fill="#032921" stroke="#032921" stroke-width="0.8" stroke-miterlimit="10" stroke-linecap="round" stroke-linejoin="round"/>
<path d="M109.651 330.167C109.651 332.349 107.882 334.118 105.7 334.118C103.519 334.118 101.75 332.349 101.75 330.167C101.75 327.986 103.519 326.217 105.7 326.217C107.882 326.218 109.651 327.986 109.651 330.167Z" fill="#032921" stroke="#032921" stroke-width="0.8" stroke-miterlimit="10" stroke-linecap="round" stroke-linejoin="round"/>
<path d="M120.186 330.167C120.186 332.349 118.417 334.118 116.236 334.118C114.054 334.118 112.285 332.349 112.285 330.167C112.285 327.986 114.054 326.217 116.236 326.217C118.418 326.218 120.186 327.986 120.186 330.167Z" fill="#032921" stroke="#032921" stroke-width="0.8" stroke-miterlimit="10" stroke-linecap="round" stroke-linejoin="round"/>
<path d="M150.908 289.678C150.908 288.466 149.926 287.484 148.714 287.484C147.502 287.484 146.52 288.466 146.52 289.678C146.52 290.89 147.502 291.873 148.714 291.873C149.926 291.873 150.908 290.89 150.908 289.678Z" fill="#032921" stroke="#032921" stroke-width="0.8" stroke-miterlimit="10" stroke-linecap="round" stroke-linejoin="round"/>
<path d="M108.333 293.189H85.0703V307.234H108.333V293.189Z" fill="white" stroke="#032921" stroke-width="0.8" stroke-miterlimit="10" stroke-linecap="round" stroke-linejoin="round"/>
<path d="M108.333 293.189H95.6055V307.234H108.333V293.189Z" fill="white" stroke="#032921" stroke-width="0.8" stroke-miterlimit="10" stroke-linecap="round" stroke-linejoin="round"/>
</svg>
