<svg width="108" height="108" viewBox="0 0 108 108" fill="none" xmlns="http://www.w3.org/2000/svg">
<g filter="url(#filter0_d_1495_8515)">
<rect x="5" y="3" width="98" height="98" rx="49" fill="#1ABC9C"/>
<rect x="5" y="3" width="98" height="98" rx="49" stroke="#E5E4E4" stroke-width="2"/>
<g clip-path="url(#clip0_1495_8515)">
<path fill-rule="evenodd" clip-rule="evenodd" d="M34.779 47.4484L75.2161 47.4293V53.9244L31.541 63.3146L34.779 47.4484Z" fill="white"/>
<path fill-rule="evenodd" clip-rule="evenodd" d="M57.6931 59.6768L62.8549 72.1145L50.0171 81.7524L47.6172 62.0957L57.6931 59.6768Z" fill="white"/>
<path fill-rule="evenodd" clip-rule="evenodd" d="M44.0738 33.1821L55.1783 29.4869L56.4544 27.6584L58.4734 28.4012L59.8258 26.4394L62.359 27.106L63.9209 25.1061L65.0828 26.1918L76.9682 22.249L72.3778 39.5248L56.1116 40.039L60.2257 45.6199L45.5404 45.6389L43.8643 33.2202L44.0738 33.1821Z" fill="white"/>
</g>
</g>
<defs>
<filter id="filter0_d_1495_8515" x="2.38419e-07" y="1.19209e-07" width="108" height="108" filterUnits="userSpaceOnUse" color-interpolation-filters="sRGB">
<feFlood flood-opacity="0" result="BackgroundImageFix"/>
<feColorMatrix in="SourceAlpha" type="matrix" values="0 0 0 0 0 0 0 0 0 0 0 0 0 0 0 0 0 0 127 0" result="hardAlpha"/>
<feOffset dy="2"/>
<feGaussianBlur stdDeviation="2"/>
<feComposite in2="hardAlpha" operator="out"/>
<feColorMatrix type="matrix" values="0 0 0 0 0 0 0 0 0 0 0 0 0 0 0 0 0 0 0.3 0"/>
<feBlend mode="normal" in2="BackgroundImageFix" result="effect1_dropShadow_1495_8515"/>
<feBlend mode="normal" in="SourceGraphic" in2="effect1_dropShadow_1495_8515" result="shape"/>
</filter>
<clipPath id="clip0_1495_8515">
<rect width="45.4274" height="59.5238" fill="white" transform="translate(31.541 22.2383)"/>
</clipPath>
</defs>
</svg>
